<svg xmlns="http://www.w3.org/2000/svg" width="55" height="55" viewBox="0 0 55 55"><path fill="#FFCE00" d="M43.7 5.3c-1.3 1.8-3 4.1-4.7 6.5C35.7 9.4 31.8 8 27.5 8V0c6 0 11.6 2 16.2 5.3z"/><path fill="#FB9600" d="M43.6 5.2c-1.3 1.8-3 4.1-4.7 6.5 3.2 2.3 5.8 5.6 7.1 9.7l7.6-2.5c-1.8-5.7-5.4-10.4-10-13.7z"/><path fill="#E25335" d="M53.7 19c-2.2.7-4.8 1.6-7.6 2.5 1.2 3.8 1.3 8 0 12l7.6 2.5c1.8-5.8 1.7-11.7 0-17z"/><path fill="#DE349E" d="M43.7 49.7c-1.3-1.8-3-4.1-4.7-6.5 3.2-2.3 5.8-5.7 7.1-9.7l7.6 2.5c-1.9 5.7-5.5 10.4-10 13.7z"/><path fill="#BF2FDC" d="M43.7 49.7c-1.3-1.8-3-4.1-4.7-6.5-3.2 2.3-7.2 3.7-11.4 3.7v8c5.9.1 11.5-1.9 16.1-5.2z"/><path fill="#5D33D5" d="M11.3 49.7c1.3-1.8 3-4.1 4.7-6.5 3.2 2.3 7.2 3.7 11.4 3.7v8c-5.9.1-11.5-1.9-16.1-5.2z"/><path fill="#2B7CD7" d="M11.4 49.8c1.3-1.8 3-4.1 4.7-6.5-3.2-2.3-5.8-5.6-7.1-9.7l-7.6 2.5c1.8 5.7 5.4 10.4 10 13.7z"/><path fill="#33C3DD" d="M1.4 36c2.2-.7 4.8-1.6 7.6-2.5-1.2-3.8-1.3-8 0-12L1.3 19c-1.8 5.8-1.7 11.7.1 17z"/><path fill="#32D9A1" d="M11.3 5.3c1.3 1.8 3 4.1 4.7 6.5-3.2 2.3-5.8 5.7-7.1 9.7L1.3 19c1.9-5.7 5.5-10.4 10-13.7z"/><path fill="#3FCB2A" d="M11.3 5.3c1.3 1.8 3 4.1 4.7 6.5C19.3 9.4 23.2 8 27.5 8V0c-6 0-11.6 2-16.2 5.3z"/></svg>